<?xml version="1.0" encoding="utf-8" standalone="no"?>
<!DOCTYPE svg PUBLIC "-//W3C//DTD SVG 1.1//EN"
  "http://www.w3.org/Graphics/SVG/1.1/DTD/svg11.dtd">
<!-- Created with matplotlib (http://matplotlib.org/) -->
<svg height="263pt" version="1.1" viewBox="0 0 551 263" width="551pt" xmlns="http://www.w3.org/2000/svg" xmlns:xlink="http://www.w3.org/1999/xlink">
 <defs>
  <style type="text/css">
*{stroke-linecap:butt;stroke-linejoin:round;}
  </style>
 </defs>
 <g id="figure_1">
  <g id="patch_1">
   <path d="
M0 263.445
L551.191 263.445
L551.191 5.68434e-14
L0 5.68434e-14
z
" style="fill:#ffffff;"/>
  </g>
  <g id="axes_1">
   <g id="patch_2">
    <path d="
M35.2731 232.11
L551.191 232.11
L551.191 4.57266
L35.2731 4.57266
z
" style="fill:#eaeaf2;"/>
   </g>
   <g id="matplotlib.axis_1">
    <g id="xtick_1">
     <g id="line2d_1">
      <defs>
       <path d="
M0 0
L0 0" id="m219da94a98" style="stroke:#262626;"/>
      </defs>
      <g>
       <use style="fill:#262626;stroke:#262626;" x="61.069" xlink:href="#m219da94a98" y="232.11046875"/>
      </g>
     </g>
     <g id="text_1">
      <!-- 0.01 -->
      <defs>
       <path d="
M4.15625 35.2969
Q4.15625 48 6.76562 55.7344
Q9.375 63.4844 14.5156 67.6719
Q19.6719 71.875 27.4844 71.875
Q33.25 71.875 37.5938 69.5469
Q41.9375 67.2344 44.7656 62.8594
Q47.6094 58.5 49.2188 52.2188
Q50.8281 45.9531 50.8281 35.2969
Q50.8281 22.7031 48.2344 14.9688
Q45.6562 7.23438 40.5 3
Q35.3594 -1.21875 27.4844 -1.21875
Q17.1406 -1.21875 11.2344 6.20312
Q4.15625 15.1406 4.15625 35.2969
M13.1875 35.2969
Q13.1875 17.6719 17.3125 11.8281
Q21.4375 6 27.4844 6
Q33.5469 6 37.6719 11.8594
Q41.7969 17.7188 41.7969 35.2969
Q41.7969 52.9844 37.6719 58.7812
Q33.5469 64.5938 27.3906 64.5938
Q21.3438 64.5938 17.7188 59.4688
Q13.1875 52.9375 13.1875 35.2969" id="ArialMT-30"/>
       <path d="
M37.25 0
L28.4688 0
L28.4688 56
Q25.2969 52.9844 20.1406 49.9531
Q14.9844 46.9219 10.8906 45.4062
L10.8906 53.9062
Q18.2656 57.375 23.7812 62.2969
Q29.2969 67.2344 31.5938 71.875
L37.25 71.875
z
" id="ArialMT-31"/>
       <path d="
M9.07812 0
L9.07812 10.0156
L19.0938 10.0156
L19.0938 0
z
" id="ArialMT-2e"/>
      </defs>
      <g style="fill:#262626;" transform="translate(52.4643125 246.26828125)scale(0.1 -0.1)">
       <use xlink:href="#ArialMT-30"/>
       <use x="55.615234375" xlink:href="#ArialMT-2e"/>
       <use x="83.3984375" xlink:href="#ArialMT-30"/>
       <use x="139.013671875" xlink:href="#ArialMT-31"/>
      </g>
     </g>
    </g>
    <g id="xtick_2">
     <g id="line2d_2">
      <g>
       <use style="fill:#262626;stroke:#262626;" x="112.66075" xlink:href="#m219da94a98" y="232.11046875"/>
      </g>
     </g>
     <g id="text_2">
      <!-- 0.02 -->
      <defs>
       <path d="
M50.3438 8.45312
L50.3438 0
L3.03125 0
Q2.9375 3.17188 4.04688 6.10938
Q5.85938 10.9375 9.82812 15.625
Q13.8125 20.3125 21.3438 26.4688
Q33.0156 36.0312 37.1094 41.625
Q41.2188 47.2188 41.2188 52.2031
Q41.2188 57.4219 37.4688 61
Q33.7344 64.5938 27.7344 64.5938
Q21.3906 64.5938 17.5781 60.7812
Q13.7656 56.9844 13.7188 50.25
L4.6875 51.1719
Q5.60938 61.2812 11.6562 66.5781
Q17.7188 71.875 27.9375 71.875
Q38.2344 71.875 44.2344 66.1562
Q50.25 60.4531 50.25 52
Q50.25 47.7031 48.4844 43.5469
Q46.7344 39.4062 42.6562 34.8125
Q38.5781 30.2188 29.1094 22.2188
Q21.1875 15.5781 18.9375 13.2031
Q16.7031 10.8438 15.2344 8.45312
z
" id="ArialMT-32"/>
      </defs>
      <g style="fill:#262626;" transform="translate(103.401375 246.26828125)scale(0.1 -0.1)">
       <use xlink:href="#ArialMT-30"/>
       <use x="55.615234375" xlink:href="#ArialMT-2e"/>
       <use x="83.3984375" xlink:href="#ArialMT-30"/>
       <use x="139.013671875" xlink:href="#ArialMT-32"/>
      </g>
     </g>
    </g>
    <g id="xtick_3">
     <g id="line2d_3">
      <g>
       <use style="fill:#262626;stroke:#262626;" x="164.2525" xlink:href="#m219da94a98" y="232.11046875"/>
      </g>
     </g>
     <g id="text_3">
      <!-- 0.05 -->
      <defs>
       <path d="
M4.15625 18.75
L13.375 19.5312
Q14.4062 12.7969 18.1406 9.39062
Q21.875 6 27.1562 6
Q33.5 6 37.8906 10.7812
Q42.2812 15.5781 42.2812 23.4844
Q42.2812 31 38.0625 35.3438
Q33.8438 39.7031 27 39.7031
Q22.75 39.7031 19.3281 37.7656
Q15.9219 35.8438 13.9688 32.7656
L5.71875 33.8438
L12.6406 70.6094
L48.25 70.6094
L48.25 62.2031
L19.6719 62.2031
L15.8281 42.9688
Q22.2656 47.4688 29.3438 47.4688
Q38.7188 47.4688 45.1562 40.9688
Q51.6094 34.4688 51.6094 24.2656
Q51.6094 14.5469 45.9531 7.46875
Q39.0625 -1.21875 27.1562 -1.21875
Q17.3906 -1.21875 11.2031 4.25
Q5.03125 9.71875 4.15625 18.75" id="ArialMT-35"/>
      </defs>
      <g style="fill:#262626;" transform="translate(154.92984375 246.26828125)scale(0.1 -0.1)">
       <use xlink:href="#ArialMT-30"/>
       <use x="55.615234375" xlink:href="#ArialMT-2e"/>
       <use x="83.3984375" xlink:href="#ArialMT-30"/>
       <use x="139.013671875" xlink:href="#ArialMT-35"/>
      </g>
     </g>
    </g>
    <g id="xtick_4">
     <g id="line2d_4">
      <g>
       <use style="fill:#262626;stroke:#262626;" x="215.84425" xlink:href="#m219da94a98" y="232.11046875"/>
      </g>
     </g>
     <g id="text_4">
      <!-- 0.15 -->
      <g style="fill:#262626;" transform="translate(206.52159375 246.26828125)scale(0.1 -0.1)">
       <use xlink:href="#ArialMT-30"/>
       <use x="55.615234375" xlink:href="#ArialMT-2e"/>
       <use x="83.3984375" xlink:href="#ArialMT-31"/>
       <use x="139.013671875" xlink:href="#ArialMT-35"/>
      </g>
     </g>
    </g>
    <g id="xtick_5">
     <g id="line2d_5">
      <g>
       <use style="fill:#262626;stroke:#262626;" x="267.436" xlink:href="#m219da94a98" y="232.11046875"/>
      </g>
     </g>
     <g id="text_5">
      <!-- 0.2 -->
      <g style="fill:#262626;" transform="translate(260.95709375 246.26828125)scale(0.1 -0.1)">
       <use xlink:href="#ArialMT-30"/>
       <use x="55.615234375" xlink:href="#ArialMT-2e"/>
       <use x="83.3984375" xlink:href="#ArialMT-32"/>
      </g>
     </g>
    </g>
    <g id="xtick_6">
     <g id="line2d_6">
      <g>
       <use style="fill:#262626;stroke:#262626;" x="319.02775" xlink:href="#m219da94a98" y="232.11046875"/>
      </g>
     </g>
     <g id="text_6">
      <!-- 0.25 -->
      <g style="fill:#262626;" transform="translate(309.70509375 246.26828125)scale(0.1 -0.1)">
       <use xlink:href="#ArialMT-30"/>
       <use x="55.615234375" xlink:href="#ArialMT-2e"/>
       <use x="83.3984375" xlink:href="#ArialMT-32"/>
       <use x="139.013671875" xlink:href="#ArialMT-35"/>
      </g>
     </g>
    </g>
    <g id="xtick_7">
     <g id="line2d_7">
      <g>
       <use style="fill:#262626;stroke:#262626;" x="370.6195" xlink:href="#m219da94a98" y="232.11046875"/>
      </g>
     </g>
     <g id="text_7">
      <!-- 0.3 -->
      <defs>
       <path d="
M4.20312 18.8906
L12.9844 20.0625
Q14.5 12.5938 18.1406 9.29688
Q21.7812 6 27 6
Q33.2031 6 37.4688 10.2969
Q41.75 14.5938 41.75 20.9531
Q41.75 27 37.7969 30.9219
Q33.8438 34.8594 27.7344 34.8594
Q25.25 34.8594 21.5312 33.8906
L22.5156 41.6094
Q23.3906 41.5 23.9219 41.5
Q29.5469 41.5 34.0312 44.4219
Q38.5312 47.3594 38.5312 53.4688
Q38.5312 58.2969 35.25 61.4688
Q31.9844 64.6562 26.8125 64.6562
Q21.6875 64.6562 18.2656 61.4219
Q14.8438 58.2031 13.875 51.7656
L5.07812 53.3281
Q6.6875 62.1562 12.3906 67.0156
Q18.1094 71.875 26.6094 71.875
Q32.4688 71.875 37.3906 69.3594
Q42.3281 66.8438 44.9375 62.5
Q47.5625 58.1562 47.5625 53.2656
Q47.5625 48.6406 45.0625 44.8281
Q42.5781 41.0156 37.7031 38.7656
Q44.0469 37.3125 47.5625 32.6875
Q51.0781 28.0781 51.0781 21.1406
Q51.0781 11.7656 44.2344 5.25
Q37.4062 -1.26562 26.9531 -1.26562
Q17.5312 -1.26562 11.2969 4.34375
Q5.07812 9.96875 4.20312 18.8906" id="ArialMT-33"/>
      </defs>
      <g style="fill:#262626;" transform="translate(364.103875 246.26828125)scale(0.1 -0.1)">
       <use xlink:href="#ArialMT-30"/>
       <use x="55.615234375" xlink:href="#ArialMT-2e"/>
       <use x="83.3984375" xlink:href="#ArialMT-33"/>
      </g>
     </g>
    </g>
    <g id="xtick_8">
     <g id="line2d_8">
      <g>
       <use style="fill:#262626;stroke:#262626;" x="422.21125" xlink:href="#m219da94a98" y="232.11046875"/>
      </g>
     </g>
     <g id="text_8">
      <!-- 0.35 -->
      <g style="fill:#262626;" transform="translate(412.88859375 246.26828125)scale(0.1 -0.1)">
       <use xlink:href="#ArialMT-30"/>
       <use x="55.615234375" xlink:href="#ArialMT-2e"/>
       <use x="83.3984375" xlink:href="#ArialMT-33"/>
       <use x="139.013671875" xlink:href="#ArialMT-35"/>
      </g>
     </g>
    </g>
    <g id="xtick_9">
     <g id="line2d_9">
      <g>
       <use style="fill:#262626;stroke:#262626;" x="473.803" xlink:href="#m219da94a98" y="232.11046875"/>
      </g>
     </g>
     <g id="text_9">
      <!-- 0.4 -->
      <defs>
       <path d="
M32.3281 0
L32.3281 17.1406
L1.26562 17.1406
L1.26562 25.2031
L33.9375 71.5781
L41.1094 71.5781
L41.1094 25.2031
L50.7812 25.2031
L50.7812 17.1406
L41.1094 17.1406
L41.1094 0
z

M32.3281 25.2031
L32.3281 57.4688
L9.90625 25.2031
z
" id="ArialMT-34"/>
      </defs>
      <g style="fill:#262626;" transform="translate(467.30221875 246.26828125)scale(0.1 -0.1)">
       <use xlink:href="#ArialMT-30"/>
       <use x="55.615234375" xlink:href="#ArialMT-2e"/>
       <use x="83.3984375" xlink:href="#ArialMT-34"/>
      </g>
     </g>
    </g>
    <g id="xtick_10">
     <g id="line2d_10">
      <g>
       <use style="fill:#262626;stroke:#262626;" x="525.39475" xlink:href="#m219da94a98" y="232.11046875"/>
      </g>
     </g>
     <g id="text_10">
      <!-- 0.5 -->
      <g style="fill:#262626;" transform="translate(518.8525625 246.26828125)scale(0.1 -0.1)">
       <use xlink:href="#ArialMT-30"/>
       <use x="55.615234375" xlink:href="#ArialMT-2e"/>
       <use x="83.3984375" xlink:href="#ArialMT-35"/>
      </g>
     </g>
    </g>
    <g id="text_11">
     <!-- Bias Percentage -->
     <defs>
      <path d="
M40.4375 19
L49.0781 17.875
Q47.6562 8.9375 41.8125 3.875
Q35.9844 -1.17188 27.4844 -1.17188
Q16.8438 -1.17188 10.375 5.78125
Q3.90625 12.75 3.90625 25.7344
Q3.90625 34.125 6.6875 40.4219
Q9.46875 46.7344 15.1562 49.875
Q20.8438 53.0312 27.5469 53.0312
Q35.9844 53.0312 41.3594 48.75
Q46.7344 44.4844 48.25 36.625
L39.7031 35.2969
Q38.4844 40.5312 35.375 43.1562
Q32.2812 45.7969 27.875 45.7969
Q21.2344 45.7969 17.0781 41.0312
Q12.9375 36.2812 12.9375 25.9844
Q12.9375 15.5312 16.9375 10.7969
Q20.9531 6.0625 27.3906 6.0625
Q32.5625 6.0625 36.0312 9.23438
Q39.5 12.4062 40.4375 19" id="ArialMT-63"/>
      <path d="
M40.4375 6.39062
Q35.5469 2.25 31.0312 0.53125
Q26.5156 -1.17188 21.3438 -1.17188
Q12.7969 -1.17188 8.20312 3
Q3.60938 7.17188 3.60938 13.6719
Q3.60938 17.4844 5.34375 20.625
Q7.07812 23.7812 9.89062 25.6875
Q12.7031 27.5938 16.2188 28.5625
Q18.7969 29.25 24.0312 29.8906
Q34.6719 31.1562 39.7031 32.9062
Q39.75 34.7188 39.75 35.2031
Q39.75 40.5781 37.25 42.7812
Q33.8906 45.75 27.25 45.75
Q21.0469 45.75 18.0938 43.5781
Q15.1406 41.4062 13.7188 35.8906
L5.125 37.0625
Q6.29688 42.5781 8.98438 45.9688
Q11.6719 49.3594 16.75 51.1875
Q21.8281 53.0312 28.5156 53.0312
Q35.1562 53.0312 39.2969 51.4688
Q43.4531 49.9062 45.4062 47.5312
Q47.3594 45.1719 48.1406 41.5469
Q48.5781 39.3125 48.5781 33.4531
L48.5781 21.7344
Q48.5781 9.46875 49.1406 6.21875
Q49.7031 2.98438 51.375 0
L42.1875 0
Q40.8281 2.73438 40.4375 6.39062
M39.7031 26.0312
Q34.9062 24.0781 25.3438 22.7031
Q19.9219 21.9219 17.6719 20.9375
Q15.4375 19.9688 14.2031 18.0938
Q12.9844 16.2188 12.9844 13.9219
Q12.9844 10.4062 15.6406 8.0625
Q18.3125 5.71875 23.4375 5.71875
Q28.5156 5.71875 32.4688 7.9375
Q36.4219 10.1562 38.2812 14.0156
Q39.7031 17 39.7031 22.7969
z
" id="ArialMT-61"/>
      <path d="
M4.98438 -4.29688
L13.5312 -5.5625
Q14.0625 -9.51562 16.5 -11.3281
Q19.7812 -13.7656 25.4375 -13.7656
Q31.5469 -13.7656 34.8594 -11.3281
Q38.1875 -8.89062 39.3594 -4.5
Q40.0469 -1.8125 39.9844 6.78125
Q34.2344 0 25.6406 0
Q14.9375 0 9.07812 7.71875
Q3.21875 15.4375 3.21875 26.2188
Q3.21875 33.6406 5.90625 39.9062
Q8.59375 46.1875 13.6875 49.6094
Q18.7969 53.0312 25.6875 53.0312
Q34.8594 53.0312 40.8281 45.6094
L40.8281 51.8594
L48.9219 51.8594
L48.9219 7.03125
Q48.9219 -5.07812 46.4531 -10.125
Q44 -15.1875 38.6406 -18.1094
Q33.2969 -21.0469 25.4844 -21.0469
Q16.2188 -21.0469 10.5 -16.875
Q4.78125 -12.7031 4.98438 -4.29688
M12.25 26.8594
Q12.25 16.6562 16.2969 11.9688
Q20.3594 7.28125 26.4688 7.28125
Q32.5156 7.28125 36.6094 11.9375
Q40.7188 16.6094 40.7188 26.5625
Q40.7188 36.0781 36.5 40.9062
Q32.2812 45.75 26.3125 45.75
Q20.4531 45.75 16.3438 40.9844
Q12.25 36.2344 12.25 26.8594" id="ArialMT-67"/>
      <path d="
M42.0938 16.7031
L51.1719 15.5781
Q49.0312 7.625 43.2188 3.21875
Q37.4062 -1.17188 28.375 -1.17188
Q17 -1.17188 10.3281 5.82812
Q3.65625 12.8438 3.65625 25.4844
Q3.65625 38.5781 10.3906 45.7969
Q17.1406 53.0312 27.875 53.0312
Q38.2812 53.0312 44.875 45.9531
Q51.4688 38.875 51.4688 26.0312
Q51.4688 25.25 51.4219 23.6875
L12.75 23.6875
Q13.2344 15.1406 17.5781 10.5938
Q21.9219 6.0625 28.4219 6.0625
Q33.25 6.0625 36.6719 8.59375
Q40.0938 11.1406 42.0938 16.7031
M13.2344 30.9062
L42.1875 30.9062
Q41.6094 37.4531 38.875 40.7188
Q34.6719 45.7969 27.9844 45.7969
Q21.9219 45.7969 17.7969 41.75
Q13.6719 37.7031 13.2344 30.9062" id="ArialMT-65"/>
      <path d="
M25.7812 7.85938
L27.0469 0.09375
Q23.3438 -0.6875 20.4062 -0.6875
Q15.625 -0.6875 12.9844 0.828125
Q10.3594 2.34375 9.28125 4.8125
Q8.20312 7.28125 8.20312 15.1875
L8.20312 45.0156
L1.76562 45.0156
L1.76562 51.8594
L8.20312 51.8594
L8.20312 64.7031
L16.9375 69.9688
L16.9375 51.8594
L25.7812 51.8594
L25.7812 45.0156
L16.9375 45.0156
L16.9375 14.7031
Q16.9375 10.9375 17.4062 9.85938
Q17.875 8.79688 18.9219 8.15625
Q19.9688 7.51562 21.9219 7.51562
Q23.3906 7.51562 25.7812 7.85938" id="ArialMT-74"/>
      <path d="
M7.71875 0
L7.71875 71.5781
L34.7188 71.5781
Q41.8438 71.5781 45.6094 70.9062
Q50.875 70.0156 54.4375 67.5469
Q58.0156 65.0938 60.1875 60.6406
Q62.3594 56.2031 62.3594 50.875
Q62.3594 41.75 56.5469 35.4219
Q50.7344 29.1094 35.5469 29.1094
L17.1875 29.1094
L17.1875 0
z

M17.1875 37.5469
L35.6875 37.5469
Q44.875 37.5469 48.7344 40.9688
Q52.5938 44.3906 52.5938 50.5938
Q52.5938 55.0781 50.3125 58.2656
Q48.0469 61.4688 44.3438 62.5
Q41.9375 63.1406 35.5 63.1406
L17.1875 63.1406
z
" id="ArialMT-50"/>
      <path d="
M7.32812 0
L7.32812 71.5781
L34.1875 71.5781
Q42.3906 71.5781 47.3438 69.4062
Q52.2969 67.2344 55.0938 62.7188
Q57.9062 58.2031 57.9062 53.2656
Q57.9062 48.6875 55.4219 44.625
Q52.9375 40.5781 47.9062 38.0938
Q54.3906 36.1875 57.875 31.5938
Q61.375 27 61.375 20.75
Q61.375 15.7188 59.25 11.3906
Q57.125 7.07812 54 4.73438
Q50.875 2.39062 46.1562 1.1875
Q41.4531 0 34.625 0
z

M16.7969 41.5
L32.2812 41.5
Q38.5781 41.5 41.3125 42.3281
Q44.9219 43.4062 46.75 45.8906
Q48.5781 48.3906 48.5781 52.1562
Q48.5781 55.7188 46.875 58.4219
Q45.1719 61.1406 41.9844 62.1406
Q38.8125 63.1406 31.1094 63.1406
L16.7969 63.1406
z

M16.7969 8.45312
L34.625 8.45312
Q39.2031 8.45312 41.0625 8.79688
Q44.3438 9.375 46.5312 10.7344
Q48.7344 12.1094 50.1406 14.7188
Q51.5625 17.3281 51.5625 20.75
Q51.5625 24.75 49.5156 27.7031
Q47.4688 30.6719 43.8281 31.8594
Q40.1875 33.0625 33.3438 33.0625
L16.7969 33.0625
z
" id="ArialMT-42"/>
      <path d="
M6.5 0
L6.5 51.8594
L14.4062 51.8594
L14.4062 44
Q17.4375 49.5156 20 51.2656
Q22.5625 53.0312 25.6406 53.0312
Q30.0781 53.0312 34.6719 50.2031
L31.6406 42.0469
Q28.4219 43.9531 25.2031 43.9531
Q22.3125 43.9531 20.0156 42.2188
Q17.7188 40.4844 16.75 37.4062
Q15.2812 32.7188 15.2812 27.1562
L15.2812 0
z
" id="ArialMT-72"/>
      <path d="
M3.07812 15.4844
L11.7656 16.8438
Q12.5 11.625 15.8438 8.84375
Q19.1875 6.0625 25.2031 6.0625
Q31.25 6.0625 34.1719 8.51562
Q37.1094 10.9844 37.1094 14.3125
Q37.1094 17.2812 34.5156 19
Q32.7188 20.1719 25.5312 21.9688
Q15.875 24.4219 12.1406 26.2031
Q8.40625 27.9844 6.46875 31.125
Q4.54688 34.2812 4.54688 38.0938
Q4.54688 41.5469 6.125 44.5
Q7.71875 47.4688 10.4531 49.4219
Q12.5 50.9219 16.0312 51.9688
Q19.5781 53.0312 23.6406 53.0312
Q29.7344 53.0312 34.3438 51.2656
Q38.9688 49.5156 41.1562 46.5
Q43.3594 43.5 44.1875 38.4844
L35.5938 37.3125
Q35.0156 41.3125 32.2031 43.5469
Q29.3906 45.7969 24.2656 45.7969
Q18.2188 45.7969 15.625 43.7969
Q13.0312 41.7969 13.0312 39.1094
Q13.0312 37.4062 14.1094 36.0312
Q15.1875 34.625 17.4844 33.6875
Q18.7969 33.2031 25.25 31.4531
Q34.5781 28.9531 38.25 27.3594
Q41.9375 25.7812 44.0312 22.75
Q46.1406 19.7344 46.1406 15.2344
Q46.1406 10.8438 43.5781 6.95312
Q41.0156 3.07812 36.1719 0.953125
Q31.3438 -1.17188 25.25 -1.17188
Q15.1406 -1.17188 9.84375 3.03125
Q4.54688 7.23438 3.07812 15.4844" id="ArialMT-73"/>
      <path d="
M6.59375 0
L6.59375 51.8594
L14.5 51.8594
L14.5 44.4844
Q20.2188 53.0312 31 53.0312
Q35.6875 53.0312 39.625 51.3438
Q43.5625 49.6562 45.5156 46.9219
Q47.4688 44.1875 48.25 40.4375
Q48.7344 37.9844 48.7344 31.8906
L48.7344 0
L39.9375 0
L39.9375 31.5469
Q39.9375 36.9219 38.9062 39.5781
Q37.8906 42.2344 35.2812 43.8125
Q32.6719 45.4062 29.1562 45.4062
Q23.5312 45.4062 19.4531 41.8438
Q15.375 38.2812 15.375 28.3281
L15.375 0
z
" id="ArialMT-6e"/>
      <path d="
M6.64062 61.4688
L6.64062 71.5781
L15.4375 71.5781
L15.4375 61.4688
z

M6.64062 0
L6.64062 51.8594
L15.4375 51.8594
L15.4375 0
z
" id="ArialMT-69"/>
      <path id="ArialMT-20"/>
     </defs>
     <g style="fill:#262626;" transform="translate(253.103359375 261.129375)scale(0.11 -0.11)">
      <use xlink:href="#ArialMT-42"/>
      <use x="66.69921875" xlink:href="#ArialMT-69"/>
      <use x="88.916015625" xlink:href="#ArialMT-61"/>
      <use x="144.53125" xlink:href="#ArialMT-73"/>
      <use x="194.53125" xlink:href="#ArialMT-20"/>
      <use x="222.314453125" xlink:href="#ArialMT-50"/>
      <use x="289.013671875" xlink:href="#ArialMT-65"/>
      <use x="344.62890625" xlink:href="#ArialMT-72"/>
      <use x="377.9296875" xlink:href="#ArialMT-63"/>
      <use x="427.9296875" xlink:href="#ArialMT-65"/>
      <use x="483.544921875" xlink:href="#ArialMT-6e"/>
      <use x="539.16015625" xlink:href="#ArialMT-74"/>
      <use x="566.943359375" xlink:href="#ArialMT-61"/>
      <use x="622.55859375" xlink:href="#ArialMT-67"/>
      <use x="678.173828125" xlink:href="#ArialMT-65"/>
     </g>
    </g>
   </g>
   <g id="matplotlib.axis_2">
    <g id="ytick_1">
     <g id="line2d_11">
      <path clip-path="url(#pb1a1e4c689)" d="
M35.2731 232.11
L551.191 232.11" style="fill:none;stroke:#ffffff;stroke-linecap:round;"/>
     </g>
     <g id="line2d_12">
      <g>
       <use style="fill:#262626;stroke:#262626;" x="35.273125" xlink:href="#m219da94a98" y="232.11046875"/>
      </g>
     </g>
     <g id="text_12">
      <!-- 0.5 -->
      <g style="fill:#262626;" transform="translate(15.18875 234.695625)scale(0.1 -0.1)">
       <use xlink:href="#ArialMT-30"/>
       <use x="55.615234375" xlink:href="#ArialMT-2e"/>
       <use x="83.3984375" xlink:href="#ArialMT-35"/>
      </g>
     </g>
    </g>
    <g id="ytick_2">
     <g id="line2d_13">
      <path clip-path="url(#pb1a1e4c689)" d="
M35.2731 186.603
L551.191 186.603" style="fill:none;stroke:#ffffff;stroke-linecap:round;"/>
     </g>
     <g id="line2d_14">
      <g>
       <use style="fill:#262626;stroke:#262626;" x="35.273125" xlink:href="#m219da94a98" y="186.60290625"/>
      </g>
     </g>
     <g id="text_13">
      <!-- 0.6 -->
      <defs>
       <path d="
M49.75 54.0469
L41.0156 53.375
Q39.8438 58.5469 37.7031 60.8906
Q34.125 64.6562 28.9062 64.6562
Q24.7031 64.6562 21.5312 62.3125
Q17.3906 59.2812 14.9844 53.4688
Q12.5938 47.6562 12.5 36.9219
Q15.6719 41.75 20.2656 44.0938
Q24.8594 46.4375 29.8906 46.4375
Q38.6719 46.4375 44.8438 39.9688
Q51.0312 33.5 51.0312 23.25
Q51.0312 16.5 48.125 10.7188
Q45.2188 4.9375 40.1406 1.85938
Q35.0625 -1.21875 28.6094 -1.21875
Q17.625 -1.21875 10.6875 6.85938
Q3.76562 14.9375 3.76562 33.5
Q3.76562 54.25 11.4219 63.6719
Q18.1094 71.875 29.4375 71.875
Q37.8906 71.875 43.2812 67.1406
Q48.6875 62.4062 49.75 54.0469
M13.875 23.1875
Q13.875 18.6562 15.7969 14.5
Q17.7188 10.3594 21.1875 8.17188
Q24.6562 6 28.4688 6
Q34.0312 6 38.0312 10.4844
Q42.0469 14.9844 42.0469 22.7031
Q42.0469 30.125 38.0781 34.3906
Q34.125 38.6719 28.125 38.6719
Q22.1719 38.6719 18.0156 34.3906
Q13.875 30.125 13.875 23.1875" id="ArialMT-36"/>
      </defs>
      <g style="fill:#262626;" transform="translate(15.2465625 189.1880625)scale(0.1 -0.1)">
       <use xlink:href="#ArialMT-30"/>
       <use x="55.615234375" xlink:href="#ArialMT-2e"/>
       <use x="83.3984375" xlink:href="#ArialMT-36"/>
      </g>
     </g>
    </g>
    <g id="ytick_3">
     <g id="line2d_15">
      <path clip-path="url(#pb1a1e4c689)" d="
M35.2731 141.095
L551.191 141.095" style="fill:none;stroke:#ffffff;stroke-linecap:round;"/>
     </g>
     <g id="line2d_16">
      <g>
       <use style="fill:#262626;stroke:#262626;" x="35.273125" xlink:href="#m219da94a98" y="141.09534375"/>
      </g>
     </g>
     <g id="text_14">
      <!-- 0.7 -->
      <defs>
       <path d="
M4.73438 62.2031
L4.73438 70.6562
L51.0781 70.6562
L51.0781 63.8125
Q44.2344 56.5469 37.5156 44.4844
Q30.8125 32.4219 27.1562 19.6719
Q24.5156 10.6875 23.7812 0
L14.75 0
Q14.8906 8.45312 18.0625 20.4062
Q21.2344 32.375 27.1719 43.4844
Q33.1094 54.5938 39.7969 62.2031
z
" id="ArialMT-37"/>
      </defs>
      <g style="fill:#262626;" transform="translate(15.241875 143.6805)scale(0.1 -0.1)">
       <use xlink:href="#ArialMT-30"/>
       <use x="55.615234375" xlink:href="#ArialMT-2e"/>
       <use x="83.3984375" xlink:href="#ArialMT-37"/>
      </g>
     </g>
    </g>
    <g id="ytick_4">
     <g id="line2d_17">
      <path clip-path="url(#pb1a1e4c689)" d="
M35.2731 95.5878
L551.191 95.5878" style="fill:none;stroke:#ffffff;stroke-linecap:round;"/>
     </g>
     <g id="line2d_18">
      <g>
       <use style="fill:#262626;stroke:#262626;" x="35.273125" xlink:href="#m219da94a98" y="95.58778125"/>
      </g>
     </g>
     <g id="text_15">
      <!-- 0.8 -->
      <defs>
       <path d="
M17.6719 38.8125
Q12.2031 40.8281 9.5625 44.5312
Q6.9375 48.25 6.9375 53.4219
Q6.9375 61.2344 12.5469 66.5469
Q18.1719 71.875 27.4844 71.875
Q36.8594 71.875 42.5781 66.4219
Q48.2969 60.9844 48.2969 53.1719
Q48.2969 48.1875 45.6719 44.5
Q43.0625 40.8281 37.75 38.8125
Q44.3438 36.6719 47.7812 31.875
Q51.2188 27.0938 51.2188 20.4531
Q51.2188 11.2812 44.7188 5.03125
Q38.2344 -1.21875 27.6406 -1.21875
Q17.0469 -1.21875 10.5469 5.04688
Q4.04688 11.3281 4.04688 20.7031
Q4.04688 27.6875 7.59375 32.3906
Q11.1406 37.1094 17.6719 38.8125
M15.9219 53.7188
Q15.9219 48.6406 19.1875 45.4062
Q22.4688 42.1875 27.6875 42.1875
Q32.7656 42.1875 36.0156 45.375
Q39.2656 48.5781 39.2656 53.2188
Q39.2656 58.0625 35.9062 61.3594
Q32.5625 64.6562 27.5938 64.6562
Q22.5625 64.6562 19.2344 61.4219
Q15.9219 58.2031 15.9219 53.7188
M13.0938 20.6562
Q13.0938 16.8906 14.875 13.375
Q16.6562 9.85938 20.1719 7.92188
Q23.6875 6 27.7344 6
Q34.0312 6 38.125 10.0469
Q42.2344 14.1094 42.2344 20.3594
Q42.2344 26.7031 38.0156 30.8594
Q33.7969 35.0156 27.4375 35.0156
Q21.2344 35.0156 17.1562 30.9062
Q13.0938 26.8125 13.0938 20.6562" id="ArialMT-38"/>
      </defs>
      <g style="fill:#262626;" transform="translate(15.2278125 98.1729375)scale(0.1 -0.1)">
       <use xlink:href="#ArialMT-30"/>
       <use x="55.615234375" xlink:href="#ArialMT-2e"/>
       <use x="83.3984375" xlink:href="#ArialMT-38"/>
      </g>
     </g>
    </g>
    <g id="ytick_5">
     <g id="line2d_19">
      <path clip-path="url(#pb1a1e4c689)" d="
M35.2731 50.0802
L551.191 50.0802" style="fill:none;stroke:#ffffff;stroke-linecap:round;"/>
     </g>
     <g id="line2d_20">
      <g>
       <use style="fill:#262626;stroke:#262626;" x="35.273125" xlink:href="#m219da94a98" y="50.08021875"/>
      </g>
     </g>
     <g id="text_16">
      <!-- 0.9 -->
      <defs>
       <path d="
M5.46875 16.5469
L13.9219 17.3281
Q14.9844 11.375 18.0156 8.6875
Q21.0469 6 25.7812 6
Q29.8281 6 32.875 7.85938
Q35.9375 9.71875 37.8906 12.8125
Q39.8438 15.9219 41.1562 21.1875
Q42.4844 26.4688 42.4844 31.9375
Q42.4844 32.5156 42.4375 33.6875
Q39.7969 29.5 35.2344 26.875
Q30.6719 24.2656 25.3438 24.2656
Q16.4531 24.2656 10.2969 30.7031
Q4.15625 37.1562 4.15625 47.7031
Q4.15625 58.5938 10.5781 65.2344
Q17 71.875 26.6562 71.875
Q33.6406 71.875 39.4219 68.1094
Q45.2188 64.3594 48.2188 57.3906
Q51.2188 50.4375 51.2188 37.25
Q51.2188 23.5312 48.2344 15.4062
Q45.2656 7.28125 39.375 3.03125
Q33.5 -1.21875 25.5938 -1.21875
Q17.1875 -1.21875 11.8594 3.4375
Q6.54688 8.10938 5.46875 16.5469
M41.4531 48.1406
Q41.4531 55.7188 37.4219 60.1562
Q33.4062 64.5938 27.7344 64.5938
Q21.875 64.5938 17.5312 59.8125
Q13.1875 55.0312 13.1875 47.4062
Q13.1875 40.5781 17.3125 36.2969
Q21.4375 32.0312 27.4844 32.0312
Q33.5938 32.0312 37.5156 36.2969
Q41.4531 40.5781 41.4531 48.1406" id="ArialMT-39"/>
      </defs>
      <g style="fill:#262626;" transform="translate(15.2278125 52.665375)scale(0.1 -0.1)">
       <use xlink:href="#ArialMT-30"/>
       <use x="55.615234375" xlink:href="#ArialMT-2e"/>
       <use x="83.3984375" xlink:href="#ArialMT-39"/>
      </g>
     </g>
    </g>
    <g id="ytick_6">
     <g id="line2d_21">
      <path clip-path="url(#pb1a1e4c689)" d="
M35.2731 4.57266
L551.191 4.57266" style="fill:none;stroke:#ffffff;stroke-linecap:round;"/>
     </g>
     <g id="line2d_22">
      <g>
       <use style="fill:#262626;stroke:#262626;" x="35.273125" xlink:href="#m219da94a98" y="4.57265625"/>
      </g>
     </g>
     <g id="text_17">
      <!-- 1.0 -->
      <g style="fill:#262626;" transform="translate(15.9403125 7.1578125)scale(0.1 -0.1)">
       <use xlink:href="#ArialMT-31"/>
       <use x="55.615234375" xlink:href="#ArialMT-2e"/>
       <use x="83.3984375" xlink:href="#ArialMT-30"/>
      </g>
     </g>
    </g>
    <g id="text_18">
     <!-- Accuracy -->
     <defs>
      <path d="
M-0.140625 0
L27.3438 71.5781
L37.5469 71.5781
L66.8438 0
L56.0625 0
L47.7031 21.6875
L17.7812 21.6875
L9.90625 0
z

M20.5156 29.3906
L44.7812 29.3906
L37.3125 49.2188
Q33.8906 58.25 32.2344 64.0625
Q30.8594 57.1719 28.375 50.3906
z
" id="ArialMT-41"/>
      <path d="
M40.5781 0
L40.5781 7.625
Q34.5156 -1.17188 24.125 -1.17188
Q19.5312 -1.17188 15.5469 0.578125
Q11.5781 2.34375 9.64062 5
Q7.71875 7.67188 6.9375 11.5312
Q6.39062 14.1094 6.39062 19.7344
L6.39062 51.8594
L15.1875 51.8594
L15.1875 23.0938
Q15.1875 16.2188 15.7188 13.8125
Q16.5469 10.3594 19.2344 8.375
Q21.9219 6.39062 25.875 6.39062
Q29.8281 6.39062 33.2969 8.42188
Q36.7656 10.4531 38.2031 13.9375
Q39.6562 17.4375 39.6562 24.0781
L39.6562 51.8594
L48.4375 51.8594
L48.4375 0
z
" id="ArialMT-75"/>
      <path d="
M6.20312 -19.9688
L5.21875 -11.7188
Q8.10938 -12.5 10.25 -12.5
Q13.1875 -12.5 14.9375 -11.5156
Q16.7031 -10.5469 17.8281 -8.79688
Q18.6562 -7.46875 20.5156 -2.25
Q20.75 -1.51562 21.2969 -0.09375
L1.60938 51.8594
L11.0781 51.8594
L21.875 21.8281
Q23.9688 16.1094 25.6406 9.8125
Q27.1562 15.875 29.25 21.625
L40.3281 51.8594
L49.125 51.8594
L29.3906 -0.875
Q26.2188 -9.42188 24.4688 -12.6406
Q22.125 -17 19.0938 -19.0156
Q16.0625 -21.0469 11.8594 -21.0469
Q9.32812 -21.0469 6.20312 -19.9688" id="ArialMT-79"/>
     </defs>
     <g style="fill:#262626;" transform="translate(7.87359375 140.918203125)rotate(-90.0)scale(0.11 -0.11)">
      <use xlink:href="#ArialMT-41"/>
      <use x="66.69921875" xlink:href="#ArialMT-63"/>
      <use x="116.69921875" xlink:href="#ArialMT-63"/>
      <use x="166.69921875" xlink:href="#ArialMT-75"/>
      <use x="222.314453125" xlink:href="#ArialMT-72"/>
      <use x="255.615234375" xlink:href="#ArialMT-61"/>
      <use x="311.23046875" xlink:href="#ArialMT-63"/>
      <use x="361.23046875" xlink:href="#ArialMT-79"/>
     </g>
    </g>
   </g>
   <g id="patch_3">
    <path clip-path="url(#pb1a1e4c689)" d="
M40.5699 188.499
L54.0525 188.499
L54.0525 140.337
L40.5699 140.337
L40.5699 188.499
z
" style="fill:#cb6d67;stroke:#5c5c5c;stroke-linejoin:miter;stroke-width:0.7;"/>
   </g>
   <g id="patch_4">
    <path clip-path="url(#pb1a1e4c689)" d="
M54.3277 141.968
L67.8103 141.968
L67.8103 137.986
L54.3277 137.986
L54.3277 141.968
z
" style="fill:#cbc267;stroke:#5c5c5c;stroke-linejoin:miter;stroke-width:0.7;"/>
   </g>
   <g id="patch_5">
    <path clip-path="url(#pb1a1e4c689)" d="
M68.0855 137.838
L81.5681 137.838
L81.5681 103.419
L68.0855 103.419
L68.0855 137.838
z
" style="fill:#7ecb67;stroke:#5c5c5c;stroke-linejoin:miter;stroke-width:0.7;"/>
   </g>
   <g id="patch_6">
    <path clip-path="url(#pb1a1e4c689)" d="
M92.1616 137.682
L105.644 137.682
L105.644 134.459
L92.1616 134.459
L92.1616 137.682
z
" style="fill:#cb6d67;stroke:#5c5c5c;stroke-linejoin:miter;stroke-width:0.7;"/>
   </g>
   <g id="patch_7">
    <path clip-path="url(#pb1a1e4c689)" d="
M105.919 135.786
L119.402 135.786
L119.402 132.563
L105.919 132.563
L105.919 135.786
z
" style="fill:#cbc267;stroke:#5c5c5c;stroke-linejoin:miter;stroke-width:0.7;"/>
   </g>
   <g id="patch_8">
    <path clip-path="url(#pb1a1e4c689)" d="
M119.677 93.5703
L133.16 93.5703
L133.16 85.3031
L119.677 85.3031
L119.677 93.5703
z
" style="fill:#7ecb67;stroke:#5c5c5c;stroke-linejoin:miter;stroke-width:0.7;"/>
   </g>
   <g id="patch_9">
    <path clip-path="url(#pb1a1e4c689)" d="
M143.753 134.269
L157.236 134.269
L157.236 130.856
L143.753 130.856
L143.753 134.269
z
" style="fill:#cb6d67;stroke:#5c5c5c;stroke-linejoin:miter;stroke-width:0.7;"/>
   </g>
   <g id="patch_10">
    <path clip-path="url(#pb1a1e4c689)" d="
M157.511 126.988
L170.994 126.988
L170.994 115.649
L157.511 115.649
L157.511 126.988
z
" style="fill:#cbc267;stroke:#5c5c5c;stroke-linejoin:miter;stroke-width:0.7;"/>
   </g>
   <g id="patch_11">
    <path clip-path="url(#pb1a1e4c689)" d="
M171.269 130.75
L184.752 130.75
L184.752 113.495
L171.269 113.495
L171.269 130.75
z
" style="fill:#7ecb67;stroke:#5c5c5c;stroke-linejoin:miter;stroke-width:0.7;"/>
   </g>
   <g id="patch_12">
    <path clip-path="url(#pb1a1e4c689)" d="
M195.345 88.1928
L208.828 88.1928
L208.828 66.0079
L195.345 66.0079
L195.345 88.1928
z
" style="fill:#cb6d67;stroke:#5c5c5c;stroke-linejoin:miter;stroke-width:0.7;"/>
   </g>
   <g id="patch_13">
    <path clip-path="url(#pb1a1e4c689)" d="
M209.103 72.7582
L222.586 72.7582
L222.586 66.1975
L209.103 66.1975
L209.103 72.7582
z
" style="fill:#cbc267;stroke:#5c5c5c;stroke-linejoin:miter;stroke-width:0.7;"/>
   </g>
   <g id="patch_14">
    <path clip-path="url(#pb1a1e4c689)" d="
M222.861 63.4101
L236.343 63.4101
L236.343 48.8136
L222.861 48.8136
L222.861 63.4101
z
" style="fill:#7ecb67;stroke:#5c5c5c;stroke-linejoin:miter;stroke-width:0.7;"/>
   </g>
   <g id="patch_15">
    <path clip-path="url(#pb1a1e4c689)" d="
M246.937 72.4548
L260.42 72.4548
L260.42 62.974
L246.937 62.974
L246.937 72.4548
z
" style="fill:#cb6d67;stroke:#5c5c5c;stroke-linejoin:miter;stroke-width:0.7;"/>
   </g>
   <g id="patch_16">
    <path clip-path="url(#pb1a1e4c689)" d="
M260.695 57.096
L274.177 57.096
L274.177 54.8964
L260.695 54.8964
L260.695 57.096
z
" style="fill:#cbc267;stroke:#5c5c5c;stroke-linejoin:miter;stroke-width:0.7;"/>
   </g>
   <g id="patch_17">
    <path clip-path="url(#pb1a1e4c689)" d="
M274.452 56.0379
L287.935 56.0379
L287.935 47.7442
L274.452 47.7442
L274.452 56.0379
z
" style="fill:#7ecb67;stroke:#5c5c5c;stroke-linejoin:miter;stroke-width:0.7;"/>
   </g>
   <g id="patch_18">
    <path clip-path="url(#pb1a1e4c689)" d="
M298.529 77.764
L312.011 77.764
L312.011 70.7482
L298.529 70.7482
L298.529 77.764
z
" style="fill:#cb6d67;stroke:#5c5c5c;stroke-linejoin:miter;stroke-width:0.7;"/>
   </g>
   <g id="patch_19">
    <path clip-path="url(#pb1a1e4c689)" d="
M312.286 44.5814
L325.769 44.5814
L325.769 43.3679
L312.286 43.3679
L312.286 44.5814
z
" style="fill:#cbc267;stroke:#5c5c5c;stroke-linejoin:miter;stroke-width:0.7;"/>
   </g>
   <g id="patch_20">
    <path clip-path="url(#pb1a1e4c689)" d="
M326.044 47.8314
L339.527 47.8314
L339.527 46.0907
L326.044 46.0907
L326.044 47.8314
z
" style="fill:#7ecb67;stroke:#5c5c5c;stroke-linejoin:miter;stroke-width:0.7;"/>
   </g>
   <g id="patch_21">
    <path clip-path="url(#pb1a1e4c689)" d="
M350.12 79.6601
L363.603 79.6601
L363.603 71.1275
L350.12 71.1275
L350.12 79.6601
z
" style="fill:#cb6d67;stroke:#5c5c5c;stroke-linejoin:miter;stroke-width:0.7;"/>
   </g>
   <g id="patch_22">
    <path clip-path="url(#pb1a1e4c689)" d="
M363.878 48.8288
L377.361 48.8288
L377.361 44.3159
L363.878 44.3159
L363.878 48.8288
z
" style="fill:#cbc267;stroke:#5c5c5c;stroke-linejoin:miter;stroke-width:0.7;"/>
   </g>
   <g id="patch_23">
    <path clip-path="url(#pb1a1e4c689)" d="
M377.636 42.1771
L391.119 42.1771
L391.119 36.2611
L377.636 36.2611
L377.636 42.1771
z
" style="fill:#7ecb67;stroke:#5c5c5c;stroke-linejoin:miter;stroke-width:0.7;"/>
   </g>
   <g id="patch_24">
    <path clip-path="url(#pb1a1e4c689)" d="
M401.712 74.9198
L415.195 74.9198
L415.195 68.8521
L401.712 68.8521
L401.712 74.9198
z
" style="fill:#cb6d67;stroke:#5c5c5c;stroke-linejoin:miter;stroke-width:0.7;"/>
   </g>
   <g id="patch_25">
    <path clip-path="url(#pb1a1e4c689)" d="
M415.47 53.2657
L428.953 53.2657
L428.953 49.0563
L415.47 49.0563
L415.47 53.2657
z
" style="fill:#cbc267;stroke:#5c5c5c;stroke-linejoin:miter;stroke-width:0.7;"/>
   </g>
   <g id="patch_26">
    <path clip-path="url(#pb1a1e4c689)" d="
M429.228 43.9291
L442.71 43.9291
L442.71 23.5341
L429.228 23.5341
L429.228 43.9291
z
" style="fill:#7ecb67;stroke:#5c5c5c;stroke-linejoin:miter;stroke-width:0.7;"/>
   </g>
   <g id="patch_27">
    <path clip-path="url(#pb1a1e4c689)" d="
M453.304 74.1613
L466.787 74.1613
L466.787 71.6963
L453.304 71.6963
L453.304 74.1613
z
" style="fill:#cb6d67;stroke:#5c5c5c;stroke-linejoin:miter;stroke-width:0.7;"/>
   </g>
   <g id="patch_28">
    <path clip-path="url(#pb1a1e4c689)" d="
M467.062 55.0861
L480.544 55.0861
L480.544 50.5353
L467.062 50.5353
L467.062 55.0861
z
" style="fill:#cbc267;stroke:#5c5c5c;stroke-linejoin:miter;stroke-width:0.7;"/>
   </g>
   <g id="patch_29">
    <path clip-path="url(#pb1a1e4c689)" d="
M480.819 33.1742
L494.302 33.1742
L494.302 29.6852
L480.819 29.6852
L480.819 33.1742
z
" style="fill:#7ecb67;stroke:#5c5c5c;stroke-linejoin:miter;stroke-width:0.7;"/>
   </g>
   <g id="patch_30">
    <path clip-path="url(#pb1a1e4c689)" d="
M504.896 113.222
L518.378 113.222
L518.378 103.741
L504.896 103.741
L504.896 113.222
z
" style="fill:#cb6d67;stroke:#5c5c5c;stroke-linejoin:miter;stroke-width:0.7;"/>
   </g>
   <g id="patch_31">
    <path clip-path="url(#pb1a1e4c689)" d="
M518.653 56.6788
L532.136 56.6788
L532.136 53.4554
L518.653 53.4554
L518.653 56.6788
z
" style="fill:#cbc267;stroke:#5c5c5c;stroke-linejoin:miter;stroke-width:0.7;"/>
   </g>
   <g id="patch_32">
    <path clip-path="url(#pb1a1e4c689)" d="
M532.411 28.0508
L545.894 28.0508
L545.894 26.8107
L532.411 26.8107
L532.411 28.0508
z
" style="fill:#7ecb67;stroke:#5c5c5c;stroke-linejoin:miter;stroke-width:0.7;"/>
   </g>
   <g id="patch_33">
    <path clip-path="url(#pb1a1e4c689)" d="
M61.069 459.648
L61.069 459.648
L61.069 459.648
L61.069 459.648
z
" style="fill:#cb6d67;stroke:#5c5c5c;stroke-linejoin:miter;stroke-width:0.35;"/>
   </g>
   <g id="patch_34">
    <path clip-path="url(#pb1a1e4c689)" d="
M61.069 459.648
L61.069 459.648
L61.069 459.648
L61.069 459.648
z
" style="fill:#cbc267;stroke:#5c5c5c;stroke-linejoin:miter;stroke-width:0.35;"/>
   </g>
   <g id="patch_35">
    <path clip-path="url(#pb1a1e4c689)" d="
M61.069 459.648
L61.069 459.648
L61.069 459.648
L61.069 459.648
z
" style="fill:#7ecb67;stroke:#5c5c5c;stroke-linejoin:miter;stroke-width:0.35;"/>
   </g>
   <g id="line2d_23">
    <path clip-path="url(#pb1a1e4c689)" d="
M47.3112 188.499
L47.3112 232.11" style="fill:none;stroke:#5c5c5c;stroke-linecap:round;stroke-width:0.7;"/>
   </g>
   <g id="line2d_24">
    <path clip-path="url(#pb1a1e4c689)" d="
M47.3112 140.337
L47.3112 138.82" style="fill:none;stroke:#5c5c5c;stroke-linecap:round;stroke-width:0.7;"/>
   </g>
   <g id="line2d_25">
    <path clip-path="url(#pb1a1e4c689)" d="
M43.9405 232.11
L50.6819 232.11" style="fill:none;stroke:#5c5c5c;stroke-linecap:round;stroke-width:0.7;"/>
   </g>
   <g id="line2d_26">
    <path clip-path="url(#pb1a1e4c689)" d="
M43.9405 138.82
L50.6819 138.82" style="fill:none;stroke:#5c5c5c;stroke-linecap:round;stroke-width:0.7;"/>
   </g>
   <g id="line2d_27">
    <path clip-path="url(#pb1a1e4c689)" d="
M40.5699 162.711
L54.0525 162.711" style="fill:none;stroke:#5c5c5c;stroke-linecap:round;stroke-width:0.7;"/>
   </g>
   <g id="line2d_28">
    <defs>
     <path d="
M-1.66533e-16 3.53553
L2.12132 0
L-1.66533e-16 -3.53553
L-2.12132 -4.44089e-16
z
" id="m097bf1d349"/>
    </defs>
    <g clip-path="url(#pb1a1e4c689)">
     <use style="fill:#5c5c5c;" x="47.3112" xlink:href="#m097bf1d349" y="58.423271875"/>
    </g>
   </g>
   <g id="line2d_29">
    <path clip-path="url(#pb1a1e4c689)" d="
M61.069 141.968
L61.069 142.157" style="fill:none;stroke:#5c5c5c;stroke-linecap:round;stroke-width:0.7;"/>
   </g>
   <g id="line2d_30">
    <path clip-path="url(#pb1a1e4c689)" d="
M61.069 137.986
L61.069 136.696" style="fill:none;stroke:#5c5c5c;stroke-linecap:round;stroke-width:0.7;"/>
   </g>
   <g id="line2d_31">
    <path clip-path="url(#pb1a1e4c689)" d="
M57.6983 142.157
L64.4397 142.157" style="fill:none;stroke:#5c5c5c;stroke-linecap:round;stroke-width:0.7;"/>
   </g>
   <g id="line2d_32">
    <path clip-path="url(#pb1a1e4c689)" d="
M57.6983 136.696
L64.4397 136.696" style="fill:none;stroke:#5c5c5c;stroke-linecap:round;stroke-width:0.7;"/>
   </g>
   <g id="line2d_33">
    <path clip-path="url(#pb1a1e4c689)" d="
M54.3277 141.171
L67.8103 141.171" style="fill:none;stroke:#5c5c5c;stroke-linecap:round;stroke-width:0.7;"/>
   </g>
   <g id="line2d_34">
    <g clip-path="url(#pb1a1e4c689)">
     <use style="fill:#5c5c5c;" x="61.069" xlink:href="#m097bf1d349" y="153.079001875"/>
    </g>
   </g>
   <g id="line2d_35">
    <path clip-path="url(#pb1a1e4c689)" d="
M74.8268 137.838
L74.8268 146.435" style="fill:none;stroke:#5c5c5c;stroke-linecap:round;stroke-width:0.7;"/>
   </g>
   <g id="line2d_36">
    <path clip-path="url(#pb1a1e4c689)" d="
M74.8268 103.419
L74.8268 96.1794" style="fill:none;stroke:#5c5c5c;stroke-linecap:round;stroke-width:0.7;"/>
   </g>
   <g id="line2d_37">
    <path clip-path="url(#pb1a1e4c689)" d="
M71.4561 146.435
L78.1975 146.435" style="fill:none;stroke:#5c5c5c;stroke-linecap:round;stroke-width:0.7;"/>
   </g>
   <g id="line2d_38">
    <path clip-path="url(#pb1a1e4c689)" d="
M71.4561 96.1794
L78.1975 96.1794" style="fill:none;stroke:#5c5c5c;stroke-linecap:round;stroke-width:0.7;"/>
   </g>
   <g id="line2d_39">
    <path clip-path="url(#pb1a1e4c689)" d="
M68.0855 128.467
L81.5681 128.467" style="fill:none;stroke:#5c5c5c;stroke-linecap:round;stroke-width:0.7;"/>
   </g>
   <g id="line2d_40">
    <g clip-path="url(#pb1a1e4c689)">
     <use style="fill:#5c5c5c;" x="74.8268" xlink:href="#m097bf1d349" y="37.09539425"/>
    </g>
   </g>
   <g id="line2d_41">
    <path clip-path="url(#pb1a1e4c689)" d="
M98.9029 137.682
L98.9029 138.062" style="fill:none;stroke:#5c5c5c;stroke-linecap:round;stroke-width:0.7;"/>
   </g>
   <g id="line2d_42">
    <path clip-path="url(#pb1a1e4c689)" d="
M98.9029 134.459
L98.9029 132.752" style="fill:none;stroke:#5c5c5c;stroke-linecap:round;stroke-width:0.7;"/>
   </g>
   <g id="line2d_43">
    <path clip-path="url(#pb1a1e4c689)" d="
M95.5323 138.062
L102.274 138.062" style="fill:none;stroke:#5c5c5c;stroke-linecap:round;stroke-width:0.7;"/>
   </g>
   <g id="line2d_44">
    <path clip-path="url(#pb1a1e4c689)" d="
M95.5323 132.752
L102.274 132.752" style="fill:none;stroke:#5c5c5c;stroke-linecap:round;stroke-width:0.7;"/>
   </g>
   <g id="line2d_45">
    <path clip-path="url(#pb1a1e4c689)" d="
M92.1616 135.786
L105.644 135.786" style="fill:none;stroke:#5c5c5c;stroke-linecap:round;stroke-width:0.7;"/>
   </g>
   <g id="line2d_46">
    <g clip-path="url(#pb1a1e4c689)">
     <use style="fill:#5c5c5c;" x="98.90295" xlink:href="#m097bf1d349" y="142.6122625"/>
    </g>
   </g>
   <g id="line2d_47">
    <path clip-path="url(#pb1a1e4c689)" d="
M112.661 135.786
L112.661 137.91" style="fill:none;stroke:#5c5c5c;stroke-linecap:round;stroke-width:0.7;"/>
   </g>
   <g id="line2d_48">
    <path clip-path="url(#pb1a1e4c689)" d="
M112.661 132.563
L112.661 131.084" style="fill:none;stroke:#5c5c5c;stroke-linecap:round;stroke-width:0.7;"/>
   </g>
   <g id="line2d_49">
    <path clip-path="url(#pb1a1e4c689)" d="
M109.29 137.91
L116.031 137.91" style="fill:none;stroke:#5c5c5c;stroke-linecap:round;stroke-width:0.7;"/>
   </g>
   <g id="line2d_50">
    <path clip-path="url(#pb1a1e4c689)" d="
M109.29 131.084
L116.031 131.084" style="fill:none;stroke:#5c5c5c;stroke-linecap:round;stroke-width:0.7;"/>
   </g>
   <g id="line2d_51">
    <path clip-path="url(#pb1a1e4c689)" d="
M105.919 133.662
L119.402 133.662" style="fill:none;stroke:#5c5c5c;stroke-linecap:round;stroke-width:0.7;"/>
   </g>
   <g id="line2d_52"/>
   <g id="line2d_53">
    <path clip-path="url(#pb1a1e4c689)" d="
M126.419 93.5703
L126.419 93.5703" style="fill:none;stroke:#5c5c5c;stroke-linecap:round;stroke-width:0.7;"/>
   </g>
   <g id="line2d_54">
    <path clip-path="url(#pb1a1e4c689)" d="
M126.419 85.3031
L126.419 83.0429" style="fill:none;stroke:#5c5c5c;stroke-linecap:round;stroke-width:0.7;"/>
   </g>
   <g id="line2d_55">
    <path clip-path="url(#pb1a1e4c689)" d="
M123.048 93.5703
L129.789 93.5703" style="fill:none;stroke:#5c5c5c;stroke-linecap:round;stroke-width:0.7;"/>
   </g>
   <g id="line2d_56">
    <path clip-path="url(#pb1a1e4c689)" d="
M123.048 83.0429
L129.789 83.0429" style="fill:none;stroke:#5c5c5c;stroke-linecap:round;stroke-width:0.7;"/>
   </g>
   <g id="line2d_57">
    <path clip-path="url(#pb1a1e4c689)" d="
M119.677 89.4367
L133.16 89.4367" style="fill:none;stroke:#5c5c5c;stroke-linecap:round;stroke-width:0.7;"/>
   </g>
   <g id="line2d_58">
    <g clip-path="url(#pb1a1e4c689)">
     <use style="fill:#5c5c5c;" x="126.41855" xlink:href="#m097bf1d349" y="111.045183312"/>
    </g>
   </g>
   <g id="line2d_59">
    <path clip-path="url(#pb1a1e4c689)" d="
M150.495 134.269
L150.495 134.269" style="fill:none;stroke:#5c5c5c;stroke-linecap:round;stroke-width:0.7;"/>
   </g>
   <g id="line2d_60">
    <path clip-path="url(#pb1a1e4c689)" d="
M150.495 130.856
L150.495 130.477" style="fill:none;stroke:#5c5c5c;stroke-linecap:round;stroke-width:0.7;"/>
   </g>
   <g id="line2d_61">
    <path clip-path="url(#pb1a1e4c689)" d="
M147.124 134.269
L153.865 134.269" style="fill:none;stroke:#5c5c5c;stroke-linecap:round;stroke-width:0.7;"/>
   </g>
   <g id="line2d_62">
    <path clip-path="url(#pb1a1e4c689)" d="
M147.124 130.477
L153.865 130.477" style="fill:none;stroke:#5c5c5c;stroke-linecap:round;stroke-width:0.7;"/>
   </g>
   <g id="line2d_63">
    <path clip-path="url(#pb1a1e4c689)" d="
M143.753 133.132
L157.236 133.132" style="fill:none;stroke:#5c5c5c;stroke-linecap:round;stroke-width:0.7;"/>
   </g>
   <g id="line2d_64">
    <g clip-path="url(#pb1a1e4c689)">
     <use style="fill:#5c5c5c;" x="150.4947" xlink:href="#m097bf1d349" y="141.09534375"/>
    </g>
   </g>
   <g id="line2d_65">
    <path clip-path="url(#pb1a1e4c689)" d="
M164.252 126.988
L164.252 129.415" style="fill:none;stroke:#5c5c5c;stroke-linecap:round;stroke-width:0.7;"/>
   </g>
   <g id="line2d_66">
    <path clip-path="url(#pb1a1e4c689)" d="
M164.252 115.649
L164.252 108.482" style="fill:none;stroke:#5c5c5c;stroke-linecap:round;stroke-width:0.7;"/>
   </g>
   <g id="line2d_67">
    <path clip-path="url(#pb1a1e4c689)" d="
M160.882 129.415
L167.623 129.415" style="fill:none;stroke:#5c5c5c;stroke-linecap:round;stroke-width:0.7;"/>
   </g>
   <g id="line2d_68">
    <path clip-path="url(#pb1a1e4c689)" d="
M160.882 108.482
L167.623 108.482" style="fill:none;stroke:#5c5c5c;stroke-linecap:round;stroke-width:0.7;"/>
   </g>
   <g id="line2d_69">
    <path clip-path="url(#pb1a1e4c689)" d="
M157.511 124.561
L170.994 124.561" style="fill:none;stroke:#5c5c5c;stroke-linecap:round;stroke-width:0.7;"/>
   </g>
   <g id="line2d_70"/>
   <g id="line2d_71">
    <path clip-path="url(#pb1a1e4c689)" d="
M178.01 130.75
L178.01 134.133" style="fill:none;stroke:#5c5c5c;stroke-linecap:round;stroke-width:0.7;"/>
   </g>
   <g id="line2d_72">
    <path clip-path="url(#pb1a1e4c689)" d="
M178.01 113.495
L178.01 108.057" style="fill:none;stroke:#5c5c5c;stroke-linecap:round;stroke-width:0.7;"/>
   </g>
   <g id="line2d_73">
    <path clip-path="url(#pb1a1e4c689)" d="
M174.64 134.133
L181.381 134.133" style="fill:none;stroke:#5c5c5c;stroke-linecap:round;stroke-width:0.7;"/>
   </g>
   <g id="line2d_74">
    <path clip-path="url(#pb1a1e4c689)" d="
M174.64 108.057
L181.381 108.057" style="fill:none;stroke:#5c5c5c;stroke-linecap:round;stroke-width:0.7;"/>
   </g>
   <g id="line2d_75">
    <path clip-path="url(#pb1a1e4c689)" d="
M171.269 130.28
L184.752 130.28" style="fill:none;stroke:#5c5c5c;stroke-linecap:round;stroke-width:0.7;"/>
   </g>
   <g id="line2d_76"/>
   <g id="line2d_77">
    <path clip-path="url(#pb1a1e4c689)" d="
M202.086 88.1928
L202.086 98.6216" style="fill:none;stroke:#5c5c5c;stroke-linecap:round;stroke-width:0.7;"/>
   </g>
   <g id="line2d_78">
    <path clip-path="url(#pb1a1e4c689)" d="
M202.086 66.0079
L202.086 56.1479" style="fill:none;stroke:#5c5c5c;stroke-linecap:round;stroke-width:0.7;"/>
   </g>
   <g id="line2d_79">
    <path clip-path="url(#pb1a1e4c689)" d="
M198.716 98.6216
L205.457 98.6216" style="fill:none;stroke:#5c5c5c;stroke-linecap:round;stroke-width:0.7;"/>
   </g>
   <g id="line2d_80">
    <path clip-path="url(#pb1a1e4c689)" d="
M198.716 56.1479
L205.457 56.1479" style="fill:none;stroke:#5c5c5c;stroke-linecap:round;stroke-width:0.7;"/>
   </g>
   <g id="line2d_81">
    <path clip-path="url(#pb1a1e4c689)" d="
M195.345 73.9717
L208.828 73.9717" style="fill:none;stroke:#5c5c5c;stroke-linecap:round;stroke-width:0.7;"/>
   </g>
   <g id="line2d_82"/>
   <g id="line2d_83">
    <path clip-path="url(#pb1a1e4c689)" d="
M215.844 72.7582
L215.844 79.2051" style="fill:none;stroke:#5c5c5c;stroke-linecap:round;stroke-width:0.7;"/>
   </g>
   <g id="line2d_84">
    <path clip-path="url(#pb1a1e4c689)" d="
M215.844 66.1975
L215.844 65.7045" style="fill:none;stroke:#5c5c5c;stroke-linecap:round;stroke-width:0.7;"/>
   </g>
   <g id="line2d_85">
    <path clip-path="url(#pb1a1e4c689)" d="
M212.474 79.2051
L219.215 79.2051" style="fill:none;stroke:#5c5c5c;stroke-linecap:round;stroke-width:0.7;"/>
   </g>
   <g id="line2d_86">
    <path clip-path="url(#pb1a1e4c689)" d="
M212.474 65.7045
L219.215 65.7045" style="fill:none;stroke:#5c5c5c;stroke-linecap:round;stroke-width:0.7;"/>
   </g>
   <g id="line2d_87">
    <path clip-path="url(#pb1a1e4c689)" d="
M209.103 69.876
L222.586 69.876" style="fill:none;stroke:#5c5c5c;stroke-linecap:round;stroke-width:0.7;"/>
   </g>
   <g id="line2d_88"/>
   <g id="line2d_89">
    <path clip-path="url(#pb1a1e4c689)" d="
M229.602 63.4101
L229.602 65.4011" style="fill:none;stroke:#5c5c5c;stroke-linecap:round;stroke-width:0.7;"/>
   </g>
   <g id="line2d_90">
    <path clip-path="url(#pb1a1e4c689)" d="
M229.602 48.8136
L229.602 38.8399" style="fill:none;stroke:#5c5c5c;stroke-linecap:round;stroke-width:0.7;"/>
   </g>
   <g id="line2d_91">
    <path clip-path="url(#pb1a1e4c689)" d="
M226.231 65.4011
L232.973 65.4011" style="fill:none;stroke:#5c5c5c;stroke-linecap:round;stroke-width:0.7;"/>
   </g>
   <g id="line2d_92">
    <path clip-path="url(#pb1a1e4c689)" d="
M226.231 38.8399
L232.973 38.8399" style="fill:none;stroke:#5c5c5c;stroke-linecap:round;stroke-width:0.7;"/>
   </g>
   <g id="line2d_93">
    <path clip-path="url(#pb1a1e4c689)" d="
M222.861 57.4373
L236.343 57.4373" style="fill:none;stroke:#5c5c5c;stroke-linecap:round;stroke-width:0.7;"/>
   </g>
   <g id="line2d_94"/>
   <g id="line2d_95">
    <path clip-path="url(#pb1a1e4c689)" d="
M253.678 72.4548
L253.678 80.4186" style="fill:none;stroke:#5c5c5c;stroke-linecap:round;stroke-width:0.7;"/>
   </g>
   <g id="line2d_96">
    <path clip-path="url(#pb1a1e4c689)" d="
M253.678 62.974
L253.678 61.4571" style="fill:none;stroke:#5c5c5c;stroke-linecap:round;stroke-width:0.7;"/>
   </g>
   <g id="line2d_97">
    <path clip-path="url(#pb1a1e4c689)" d="
M250.308 80.4186
L257.049 80.4186" style="fill:none;stroke:#5c5c5c;stroke-linecap:round;stroke-width:0.7;"/>
   </g>
   <g id="line2d_98">
    <path clip-path="url(#pb1a1e4c689)" d="
M250.308 61.4571
L257.049 61.4571" style="fill:none;stroke:#5c5c5c;stroke-linecap:round;stroke-width:0.7;"/>
   </g>
   <g id="line2d_99">
    <path clip-path="url(#pb1a1e4c689)" d="
M246.937 68.2832
L260.42 68.2832" style="fill:none;stroke:#5c5c5c;stroke-linecap:round;stroke-width:0.7;"/>
   </g>
   <g id="line2d_100"/>
   <g id="line2d_101">
    <path clip-path="url(#pb1a1e4c689)" d="
M267.436 57.096
L267.436 57.5131" style="fill:none;stroke:#5c5c5c;stroke-linecap:round;stroke-width:0.7;"/>
   </g>
   <g id="line2d_102">
    <path clip-path="url(#pb1a1e4c689)" d="
M267.436 54.8964
L267.436 54.631" style="fill:none;stroke:#5c5c5c;stroke-linecap:round;stroke-width:0.7;"/>
   </g>
   <g id="line2d_103">
    <path clip-path="url(#pb1a1e4c689)" d="
M264.065 57.5131
L270.807 57.5131" style="fill:none;stroke:#5c5c5c;stroke-linecap:round;stroke-width:0.7;"/>
   </g>
   <g id="line2d_104">
    <path clip-path="url(#pb1a1e4c689)" d="
M264.065 54.631
L270.807 54.631" style="fill:none;stroke:#5c5c5c;stroke-linecap:round;stroke-width:0.7;"/>
   </g>
   <g id="line2d_105">
    <path clip-path="url(#pb1a1e4c689)" d="
M260.695 55.7687
L274.177 55.7687" style="fill:none;stroke:#5c5c5c;stroke-linecap:round;stroke-width:0.7;"/>
   </g>
   <g id="line2d_106">
    <g clip-path="url(#pb1a1e4c689)">
     <use style="fill:#5c5c5c;" x="267.436" xlink:href="#m097bf1d349" y="71.31708125"/>
     <use style="fill:#5c5c5c;" x="267.436" xlink:href="#m097bf1d349" y="40.37193875"/>
    </g>
   </g>
   <g id="line2d_107">
    <path clip-path="url(#pb1a1e4c689)" d="
M281.194 56.0379
L281.194 58.4991" style="fill:none;stroke:#5c5c5c;stroke-linecap:round;stroke-width:0.7;"/>
   </g>
   <g id="line2d_108">
    <path clip-path="url(#pb1a1e4c689)" d="
M281.194 47.7442
L281.194 46.6368" style="fill:none;stroke:#5c5c5c;stroke-linecap:round;stroke-width:0.7;"/>
   </g>
   <g id="line2d_109">
    <path clip-path="url(#pb1a1e4c689)" d="
M277.823 58.4991
L284.564 58.4991" style="fill:none;stroke:#5c5c5c;stroke-linecap:round;stroke-width:0.7;"/>
   </g>
   <g id="line2d_110">
    <path clip-path="url(#pb1a1e4c689)" d="
M277.823 46.6368
L284.564 46.6368" style="fill:none;stroke:#5c5c5c;stroke-linecap:round;stroke-width:0.7;"/>
   </g>
   <g id="line2d_111">
    <path clip-path="url(#pb1a1e4c689)" d="
M274.452 51.0662
L287.935 51.0662" style="fill:none;stroke:#5c5c5c;stroke-linecap:round;stroke-width:0.7;"/>
   </g>
   <g id="line2d_112"/>
   <g id="line2d_113">
    <path clip-path="url(#pb1a1e4c689)" d="
M305.27 77.764
L305.27 82.694" style="fill:none;stroke:#5c5c5c;stroke-linecap:round;stroke-width:0.7;"/>
   </g>
   <g id="line2d_114">
    <path clip-path="url(#pb1a1e4c689)" d="
M305.27 70.7482
L305.27 63.7325" style="fill:none;stroke:#5c5c5c;stroke-linecap:round;stroke-width:0.7;"/>
   </g>
   <g id="line2d_115">
    <path clip-path="url(#pb1a1e4c689)" d="
M301.899 82.694
L308.641 82.694" style="fill:none;stroke:#5c5c5c;stroke-linecap:round;stroke-width:0.7;"/>
   </g>
   <g id="line2d_116">
    <path clip-path="url(#pb1a1e4c689)" d="
M301.899 63.7325
L308.641 63.7325" style="fill:none;stroke:#5c5c5c;stroke-linecap:round;stroke-width:0.7;"/>
   </g>
   <g id="line2d_117">
    <path clip-path="url(#pb1a1e4c689)" d="
M298.529 73.9717
L312.011 73.9717" style="fill:none;stroke:#5c5c5c;stroke-linecap:round;stroke-width:0.7;"/>
   </g>
   <g id="line2d_118"/>
   <g id="line2d_119">
    <path clip-path="url(#pb1a1e4c689)" d="
M319.028 44.5814
L319.028 44.771" style="fill:none;stroke:#5c5c5c;stroke-linecap:round;stroke-width:0.7;"/>
   </g>
   <g id="line2d_120">
    <path clip-path="url(#pb1a1e4c689)" d="
M319.028 43.3679
L319.028 43.2541" style="fill:none;stroke:#5c5c5c;stroke-linecap:round;stroke-width:0.7;"/>
   </g>
   <g id="line2d_121">
    <path clip-path="url(#pb1a1e4c689)" d="
M315.657 44.771
L322.398 44.771" style="fill:none;stroke:#5c5c5c;stroke-linecap:round;stroke-width:0.7;"/>
   </g>
   <g id="line2d_122">
    <path clip-path="url(#pb1a1e4c689)" d="
M315.657 43.2541
L322.398 43.2541" style="fill:none;stroke:#5c5c5c;stroke-linecap:round;stroke-width:0.7;"/>
   </g>
   <g id="line2d_123">
    <path clip-path="url(#pb1a1e4c689)" d="
M312.286 43.8609
L325.769 43.8609" style="fill:none;stroke:#5c5c5c;stroke-linecap:round;stroke-width:0.7;"/>
   </g>
   <g id="line2d_124">
    <g clip-path="url(#pb1a1e4c689)">
     <use style="fill:#5c5c5c;" x="319.02775" xlink:href="#m097bf1d349" y="58.726655625"/>
     <use style="fill:#5c5c5c;" x="319.02775" xlink:href="#m097bf1d349" y="38.85502"/>
    </g>
   </g>
   <g id="line2d_125">
    <path clip-path="url(#pb1a1e4c689)" d="
M332.786 47.8314
L332.786 48.5936" style="fill:none;stroke:#5c5c5c;stroke-linecap:round;stroke-width:0.7;"/>
   </g>
   <g id="line2d_126">
    <path clip-path="url(#pb1a1e4c689)" d="
M332.786 46.0907
L332.786 46.0149" style="fill:none;stroke:#5c5c5c;stroke-linecap:round;stroke-width:0.7;"/>
   </g>
   <g id="line2d_127">
    <path clip-path="url(#pb1a1e4c689)" d="
M329.415 48.5936
L336.156 48.5936" style="fill:none;stroke:#5c5c5c;stroke-linecap:round;stroke-width:0.7;"/>
   </g>
   <g id="line2d_128">
    <path clip-path="url(#pb1a1e4c689)" d="
M329.415 46.0149
L336.156 46.0149" style="fill:none;stroke:#5c5c5c;stroke-linecap:round;stroke-width:0.7;"/>
   </g>
   <g id="line2d_129">
    <path clip-path="url(#pb1a1e4c689)" d="
M326.044 46.3183
L339.527 46.3183" style="fill:none;stroke:#5c5c5c;stroke-linecap:round;stroke-width:0.7;"/>
   </g>
   <g id="line2d_130"/>
   <g id="line2d_131">
    <path clip-path="url(#pb1a1e4c689)" d="
M356.862 79.6601
L356.862 84.2109" style="fill:none;stroke:#5c5c5c;stroke-linecap:round;stroke-width:0.7;"/>
   </g>
   <g id="line2d_132">
    <path clip-path="url(#pb1a1e4c689)" d="
M356.862 71.1275
L356.862 66.0079" style="fill:none;stroke:#5c5c5c;stroke-linecap:round;stroke-width:0.7;"/>
   </g>
   <g id="line2d_133">
    <path clip-path="url(#pb1a1e4c689)" d="
M353.491 84.2109
L360.232 84.2109" style="fill:none;stroke:#5c5c5c;stroke-linecap:round;stroke-width:0.7;"/>
   </g>
   <g id="line2d_134">
    <path clip-path="url(#pb1a1e4c689)" d="
M353.491 66.0079
L360.232 66.0079" style="fill:none;stroke:#5c5c5c;stroke-linecap:round;stroke-width:0.7;"/>
   </g>
   <g id="line2d_135">
    <path clip-path="url(#pb1a1e4c689)" d="
M350.12 76.2471
L363.603 76.2471" style="fill:none;stroke:#5c5c5c;stroke-linecap:round;stroke-width:0.7;"/>
   </g>
   <g id="line2d_136"/>
   <g id="line2d_137">
    <path clip-path="url(#pb1a1e4c689)" d="
M370.619 48.8288
L370.619 54.631" style="fill:none;stroke:#5c5c5c;stroke-linecap:round;stroke-width:0.7;"/>
   </g>
   <g id="line2d_138">
    <path clip-path="url(#pb1a1e4c689)" d="
M370.619 44.3159
L370.619 41.7372" style="fill:none;stroke:#5c5c5c;stroke-linecap:round;stroke-width:0.7;"/>
   </g>
   <g id="line2d_139">
    <path clip-path="url(#pb1a1e4c689)" d="
M367.249 54.631
L373.99 54.631" style="fill:none;stroke:#5c5c5c;stroke-linecap:round;stroke-width:0.7;"/>
   </g>
   <g id="line2d_140">
    <path clip-path="url(#pb1a1e4c689)" d="
M367.249 41.7372
L373.99 41.7372" style="fill:none;stroke:#5c5c5c;stroke-linecap:round;stroke-width:0.7;"/>
   </g>
   <g id="line2d_141">
    <path clip-path="url(#pb1a1e4c689)" d="
M363.878 46.5155
L377.361 46.5155" style="fill:none;stroke:#5c5c5c;stroke-linecap:round;stroke-width:0.7;"/>
   </g>
   <g id="line2d_142"/>
   <g id="line2d_143">
    <path clip-path="url(#pb1a1e4c689)" d="
M384.377 42.1771
L384.377 43.9519" style="fill:none;stroke:#5c5c5c;stroke-linecap:round;stroke-width:0.7;"/>
   </g>
   <g id="line2d_144">
    <path clip-path="url(#pb1a1e4c689)" d="
M384.377 36.2611
L384.377 32.9542" style="fill:none;stroke:#5c5c5c;stroke-linecap:round;stroke-width:0.7;"/>
   </g>
   <g id="line2d_145">
    <path clip-path="url(#pb1a1e4c689)" d="
M381.007 43.9519
L387.748 43.9519" style="fill:none;stroke:#5c5c5c;stroke-linecap:round;stroke-width:0.7;"/>
   </g>
   <g id="line2d_146">
    <path clip-path="url(#pb1a1e4c689)" d="
M381.007 32.9542
L387.748 32.9542" style="fill:none;stroke:#5c5c5c;stroke-linecap:round;stroke-width:0.7;"/>
   </g>
   <g id="line2d_147">
    <path clip-path="url(#pb1a1e4c689)" d="
M377.636 36.5569
L391.119 36.5569" style="fill:none;stroke:#5c5c5c;stroke-linecap:round;stroke-width:0.7;"/>
   </g>
   <g id="line2d_148"/>
   <g id="line2d_149">
    <path clip-path="url(#pb1a1e4c689)" d="
M408.453 74.9198
L408.453 75.1094" style="fill:none;stroke:#5c5c5c;stroke-linecap:round;stroke-width:0.7;"/>
   </g>
   <g id="line2d_150">
    <path clip-path="url(#pb1a1e4c689)" d="
M408.453 68.8521
L408.453 62.974" style="fill:none;stroke:#5c5c5c;stroke-linecap:round;stroke-width:0.7;"/>
   </g>
   <g id="line2d_151">
    <path clip-path="url(#pb1a1e4c689)" d="
M405.083 75.1094
L411.824 75.1094" style="fill:none;stroke:#5c5c5c;stroke-linecap:round;stroke-width:0.7;"/>
   </g>
   <g id="line2d_152">
    <path clip-path="url(#pb1a1e4c689)" d="
M405.083 62.974
L411.824 62.974" style="fill:none;stroke:#5c5c5c;stroke-linecap:round;stroke-width:0.7;"/>
   </g>
   <g id="line2d_153">
    <path clip-path="url(#pb1a1e4c689)" d="
M401.712 73.5925
L415.195 73.5925" style="fill:none;stroke:#5c5c5c;stroke-linecap:round;stroke-width:0.7;"/>
   </g>
   <g id="line2d_154">
    <g clip-path="url(#pb1a1e4c689)">
     <use style="fill:#5c5c5c;" x="408.45345" xlink:href="#m097bf1d349" y="98.62161875"/>
    </g>
   </g>
   <g id="line2d_155">
    <path clip-path="url(#pb1a1e4c689)" d="
M422.211 53.2657
L422.211 56.4513" style="fill:none;stroke:#5c5c5c;stroke-linecap:round;stroke-width:0.7;"/>
   </g>
   <g id="line2d_156">
    <path clip-path="url(#pb1a1e4c689)" d="
M422.211 49.0563
L422.211 47.5015" style="fill:none;stroke:#5c5c5c;stroke-linecap:round;stroke-width:0.7;"/>
   </g>
   <g id="line2d_157">
    <path clip-path="url(#pb1a1e4c689)" d="
M418.841 56.4513
L425.582 56.4513" style="fill:none;stroke:#5c5c5c;stroke-linecap:round;stroke-width:0.7;"/>
   </g>
   <g id="line2d_158">
    <path clip-path="url(#pb1a1e4c689)" d="
M418.841 47.5015
L425.582 47.5015" style="fill:none;stroke:#5c5c5c;stroke-linecap:round;stroke-width:0.7;"/>
   </g>
   <g id="line2d_159">
    <path clip-path="url(#pb1a1e4c689)" d="
M415.47 52.1281
L428.953 52.1281" style="fill:none;stroke:#5c5c5c;stroke-linecap:round;stroke-width:0.7;"/>
   </g>
   <g id="line2d_160"/>
   <g id="line2d_161">
    <path clip-path="url(#pb1a1e4c689)" d="
M435.969 43.9291
L435.969 45.3778" style="fill:none;stroke:#5c5c5c;stroke-linecap:round;stroke-width:0.7;"/>
   </g>
   <g id="line2d_162">
    <path clip-path="url(#pb1a1e4c689)" d="
M435.969 23.5341
L435.969 18.6345" style="fill:none;stroke:#5c5c5c;stroke-linecap:round;stroke-width:0.7;"/>
   </g>
   <g id="line2d_163">
    <path clip-path="url(#pb1a1e4c689)" d="
M432.598 45.3778
L439.34 45.3778" style="fill:none;stroke:#5c5c5c;stroke-linecap:round;stroke-width:0.7;"/>
   </g>
   <g id="line2d_164">
    <path clip-path="url(#pb1a1e4c689)" d="
M432.598 18.6345
L439.34 18.6345" style="fill:none;stroke:#5c5c5c;stroke-linecap:round;stroke-width:0.7;"/>
   </g>
   <g id="line2d_165">
    <path clip-path="url(#pb1a1e4c689)" d="
M429.228 31.5586
L442.71 31.5586" style="fill:none;stroke:#5c5c5c;stroke-linecap:round;stroke-width:0.7;"/>
   </g>
   <g id="line2d_166"/>
   <g id="line2d_167">
    <path clip-path="url(#pb1a1e4c689)" d="
M460.045 74.1613
L460.045 76.6263" style="fill:none;stroke:#5c5c5c;stroke-linecap:round;stroke-width:0.7;"/>
   </g>
   <g id="line2d_168">
    <path clip-path="url(#pb1a1e4c689)" d="
M460.045 71.6963
L460.045 68.2832" style="fill:none;stroke:#5c5c5c;stroke-linecap:round;stroke-width:0.7;"/>
   </g>
   <g id="line2d_169">
    <path clip-path="url(#pb1a1e4c689)" d="
M456.675 76.6263
L463.416 76.6263" style="fill:none;stroke:#5c5c5c;stroke-linecap:round;stroke-width:0.7;"/>
   </g>
   <g id="line2d_170">
    <path clip-path="url(#pb1a1e4c689)" d="
M456.675 68.2832
L463.416 68.2832" style="fill:none;stroke:#5c5c5c;stroke-linecap:round;stroke-width:0.7;"/>
   </g>
   <g id="line2d_171">
    <path clip-path="url(#pb1a1e4c689)" d="
M453.304 73.2132
L466.787 73.2132" style="fill:none;stroke:#5c5c5c;stroke-linecap:round;stroke-width:0.7;"/>
   </g>
   <g id="line2d_172"/>
   <g id="line2d_173">
    <path clip-path="url(#pb1a1e4c689)" d="
M473.803 55.0861
L473.803 57.3614" style="fill:none;stroke:#5c5c5c;stroke-linecap:round;stroke-width:0.7;"/>
   </g>
   <g id="line2d_174">
    <path clip-path="url(#pb1a1e4c689)" d="
M473.803 50.5353
L473.803 48.5633" style="fill:none;stroke:#5c5c5c;stroke-linecap:round;stroke-width:0.7;"/>
   </g>
   <g id="line2d_175">
    <path clip-path="url(#pb1a1e4c689)" d="
M470.432 57.3614
L477.174 57.3614" style="fill:none;stroke:#5c5c5c;stroke-linecap:round;stroke-width:0.7;"/>
   </g>
   <g id="line2d_176">
    <path clip-path="url(#pb1a1e4c689)" d="
M470.432 48.5633
L477.174 48.5633" style="fill:none;stroke:#5c5c5c;stroke-linecap:round;stroke-width:0.7;"/>
   </g>
   <g id="line2d_177">
    <path clip-path="url(#pb1a1e4c689)" d="
M467.062 51.9005
L480.544 51.9005" style="fill:none;stroke:#5c5c5c;stroke-linecap:round;stroke-width:0.7;"/>
   </g>
   <g id="line2d_178"/>
   <g id="line2d_179">
    <path clip-path="url(#pb1a1e4c689)" d="
M487.561 33.1742
L487.561 33.2728" style="fill:none;stroke:#5c5c5c;stroke-linecap:round;stroke-width:0.7;"/>
   </g>
   <g id="line2d_180">
    <path clip-path="url(#pb1a1e4c689)" d="
M487.561 29.6852
L487.561 29.1922" style="fill:none;stroke:#5c5c5c;stroke-linecap:round;stroke-width:0.7;"/>
   </g>
   <g id="line2d_181">
    <path clip-path="url(#pb1a1e4c689)" d="
M484.19 33.2728
L490.931 33.2728" style="fill:none;stroke:#5c5c5c;stroke-linecap:round;stroke-width:0.7;"/>
   </g>
   <g id="line2d_182">
    <path clip-path="url(#pb1a1e4c689)" d="
M484.19 29.1922
L490.931 29.1922" style="fill:none;stroke:#5c5c5c;stroke-linecap:round;stroke-width:0.7;"/>
   </g>
   <g id="line2d_183">
    <path clip-path="url(#pb1a1e4c689)" d="
M480.819 32.0213
L494.302 32.0213" style="fill:none;stroke:#5c5c5c;stroke-linecap:round;stroke-width:0.7;"/>
   </g>
   <g id="line2d_184"/>
   <g id="line2d_185">
    <path clip-path="url(#pb1a1e4c689)" d="
M511.637 113.222
L511.637 116.825" style="fill:none;stroke:#5c5c5c;stroke-linecap:round;stroke-width:0.7;"/>
   </g>
   <g id="line2d_186">
    <path clip-path="url(#pb1a1e4c689)" d="
M511.637 103.741
L511.637 97.1047" style="fill:none;stroke:#5c5c5c;stroke-linecap:round;stroke-width:0.7;"/>
   </g>
   <g id="line2d_187">
    <path clip-path="url(#pb1a1e4c689)" d="
M508.266 116.825
L515.008 116.825" style="fill:none;stroke:#5c5c5c;stroke-linecap:round;stroke-width:0.7;"/>
   </g>
   <g id="line2d_188">
    <path clip-path="url(#pb1a1e4c689)" d="
M508.266 97.1047
L515.008 97.1047" style="fill:none;stroke:#5c5c5c;stroke-linecap:round;stroke-width:0.7;"/>
   </g>
   <g id="line2d_189">
    <path clip-path="url(#pb1a1e4c689)" d="
M504.896 107.344
L518.378 107.344" style="fill:none;stroke:#5c5c5c;stroke-linecap:round;stroke-width:0.7;"/>
   </g>
   <g id="line2d_190"/>
   <g id="line2d_191">
    <path clip-path="url(#pb1a1e4c689)" d="
M525.395 56.6788
L525.395 59.03" style="fill:none;stroke:#5c5c5c;stroke-linecap:round;stroke-width:0.7;"/>
   </g>
   <g id="line2d_192">
    <path clip-path="url(#pb1a1e4c689)" d="
M525.395 53.4554
L525.395 53.2657" style="fill:none;stroke:#5c5c5c;stroke-linecap:round;stroke-width:0.7;"/>
   </g>
   <g id="line2d_193">
    <path clip-path="url(#pb1a1e4c689)" d="
M522.024 59.03
L528.765 59.03" style="fill:none;stroke:#5c5c5c;stroke-linecap:round;stroke-width:0.7;"/>
   </g>
   <g id="line2d_194">
    <path clip-path="url(#pb1a1e4c689)" d="
M522.024 53.2657
L528.765 53.2657" style="fill:none;stroke:#5c5c5c;stroke-linecap:round;stroke-width:0.7;"/>
   </g>
   <g id="line2d_195">
    <path clip-path="url(#pb1a1e4c689)" d="
M518.653 54.3276
L532.136 54.3276" style="fill:none;stroke:#5c5c5c;stroke-linecap:round;stroke-width:0.7;"/>
   </g>
   <g id="line2d_196"/>
   <g id="line2d_197">
    <path clip-path="url(#pb1a1e4c689)" d="
M539.153 28.0508
L539.153 28.4186" style="fill:none;stroke:#5c5c5c;stroke-linecap:round;stroke-width:0.7;"/>
   </g>
   <g id="line2d_198">
    <path clip-path="url(#pb1a1e4c689)" d="
M539.153 26.8107
L539.153 26.7803" style="fill:none;stroke:#5c5c5c;stroke-linecap:round;stroke-width:0.7;"/>
   </g>
   <g id="line2d_199">
    <path clip-path="url(#pb1a1e4c689)" d="
M535.782 28.4186
L542.523 28.4186" style="fill:none;stroke:#5c5c5c;stroke-linecap:round;stroke-width:0.7;"/>
   </g>
   <g id="line2d_200">
    <path clip-path="url(#pb1a1e4c689)" d="
M535.782 26.7803
L542.523 26.7803" style="fill:none;stroke:#5c5c5c;stroke-linecap:round;stroke-width:0.7;"/>
   </g>
   <g id="line2d_201">
    <path clip-path="url(#pb1a1e4c689)" d="
M532.411 26.8789
L545.894 26.8789" style="fill:none;stroke:#5c5c5c;stroke-linecap:round;stroke-width:0.7;"/>
   </g>
   <g id="line2d_202"/>
   <g id="patch_36">
    <path d="
M35.2731 232.11
L551.191 232.11" style="fill:none;"/>
   </g>
   <g id="patch_37">
    <path d="
M35.2731 232.11
L35.2731 4.57266" style="fill:none;"/>
   </g>
   <g id="legend_1">
    <g id="patch_38">
     <path d="
M454.878 192.832
L474.878 192.832
L474.878 185.832
L454.878 185.832
z
" style="fill:#cb6d67;stroke:#5c5c5c;stroke-linejoin:miter;stroke-width:0.35;"/>
    </g>
    <g id="text_19">
     <!-- Two -->
     <defs>
      <path d="
M16.1562 0
L0.296875 51.8594
L9.375 51.8594
L17.625 21.9219
L20.7031 10.7969
Q20.9062 11.625 23.3906 21.4844
L31.6406 51.8594
L40.6719 51.8594
L48.4375 21.7812
L51.0312 11.8594
L54 21.875
L62.8906 51.8594
L71.4375 51.8594
L55.2188 0
L46.0938 0
L37.8438 31.0625
L35.8438 39.8906
L25.3438 0
z
" id="ArialMT-77"/>
      <path d="
M3.32812 25.9219
Q3.32812 40.3281 11.3281 47.2656
Q18.0156 53.0312 27.6406 53.0312
Q38.3281 53.0312 45.1094 46.0156
Q51.9062 39.0156 51.9062 26.6562
Q51.9062 16.6562 48.9062 10.9062
Q45.9062 5.17188 40.1562 2
Q34.4219 -1.17188 27.6406 -1.17188
Q16.75 -1.17188 10.0312 5.8125
Q3.32812 12.7969 3.32812 25.9219
M12.3594 25.9219
Q12.3594 15.9688 16.7031 11.0156
Q21.0469 6.0625 27.6406 6.0625
Q34.1875 6.0625 38.5312 11.0312
Q42.875 16.0156 42.875 26.2188
Q42.875 35.8438 38.5 40.7969
Q34.125 45.75 27.6406 45.75
Q21.0469 45.75 16.7031 40.8125
Q12.3594 35.8906 12.3594 25.9219" id="ArialMT-6f"/>
      <path d="
M25.9219 0
L25.9219 63.1406
L2.34375 63.1406
L2.34375 71.5781
L59.0781 71.5781
L59.0781 63.1406
L35.4062 63.1406
L35.4062 0
z
" id="ArialMT-54"/>
     </defs>
     <g style="fill:#262626;" transform="translate(482.878125 192.83234375)scale(0.1 -0.1)">
      <use xlink:href="#ArialMT-54"/>
      <use x="55.583984375" xlink:href="#ArialMT-77"/>
      <use x="127.80078125" xlink:href="#ArialMT-6f"/>
     </g>
    </g>
    <g id="patch_39">
     <path d="
M454.878 206.978
L474.878 206.978
L474.878 199.978
L454.878 199.978
z
" style="fill:#cbc267;stroke:#5c5c5c;stroke-linejoin:miter;stroke-width:0.35;"/>
    </g>
    <g id="text_20">
     <!-- Ten -->
     <g style="fill:#262626;" transform="translate(482.878125 206.97765625)scale(0.1 -0.1)">
      <use xlink:href="#ArialMT-54"/>
      <use x="49.958984375" xlink:href="#ArialMT-65"/>
      <use x="105.57421875" xlink:href="#ArialMT-6e"/>
     </g>
    </g>
    <g id="patch_40">
     <path d="
M454.878 221.123
L474.878 221.123
L474.878 214.123
L454.878 214.123
z
" style="fill:#7ecb67;stroke:#5c5c5c;stroke-linejoin:miter;stroke-width:0.35;"/>
    </g>
    <g id="text_21">
     <!-- One Hundred -->
     <defs>
      <path d="
M8.01562 0
L8.01562 71.5781
L17.4844 71.5781
L17.4844 42.1875
L54.6875 42.1875
L54.6875 71.5781
L64.1562 71.5781
L64.1562 0
L54.6875 0
L54.6875 33.7344
L17.4844 33.7344
L17.4844 0
z
" id="ArialMT-48"/>
      <path d="
M40.2344 0
L40.2344 6.54688
Q35.2969 -1.17188 25.7344 -1.17188
Q19.5312 -1.17188 14.3281 2.25
Q9.125 5.67188 6.26562 11.7969
Q3.42188 17.9219 3.42188 25.875
Q3.42188 33.6406 6 39.9688
Q8.59375 46.2969 13.7656 49.6562
Q18.9531 53.0312 25.3438 53.0312
Q30.0312 53.0312 33.6875 51.0469
Q37.3594 49.0781 39.6562 45.9062
L39.6562 71.5781
L48.3906 71.5781
L48.3906 0
z

M12.4531 25.875
Q12.4531 15.9219 16.6406 10.9844
Q20.8438 6.0625 26.5625 6.0625
Q32.3281 6.0625 36.3438 10.7656
Q40.375 15.4844 40.375 25.1406
Q40.375 35.7969 36.2656 40.7656
Q32.1719 45.75 26.1719 45.75
Q20.3125 45.75 16.375 40.9688
Q12.4531 36.1875 12.4531 25.875" id="ArialMT-64"/>
      <path d="
M4.82812 34.8594
Q4.82812 52.6875 14.3906 62.7656
Q23.9688 72.8594 39.1094 72.8594
Q49.0312 72.8594 56.9844 68.1094
Q64.9375 63.375 69.1094 54.9062
Q73.2969 46.4375 73.2969 35.6875
Q73.2969 24.8125 68.8906 16.2188
Q64.5 7.625 56.4375 3.20312
Q48.3906 -1.21875 39.0625 -1.21875
Q28.9531 -1.21875 20.9844 3.65625
Q13.0312 8.54688 8.92188 16.9844
Q4.82812 25.4375 4.82812 34.8594
M14.5938 34.7188
Q14.5938 21.7812 21.5469 14.3281
Q28.5156 6.89062 39.0156 6.89062
Q49.7031 6.89062 56.6094 14.4062
Q63.5312 21.9219 63.5312 35.75
Q63.5312 44.4844 60.5781 51
Q57.625 57.5156 51.9219 61.1094
Q46.2344 64.7031 39.1562 64.7031
Q29.1094 64.7031 21.8438 57.7812
Q14.5938 50.875 14.5938 34.7188" id="ArialMT-4f"/>
     </defs>
     <g style="fill:#262626;" transform="translate(482.878125 221.12296875)scale(0.1 -0.1)">
      <use xlink:href="#ArialMT-4f"/>
      <use x="77.783203125" xlink:href="#ArialMT-6e"/>
      <use x="133.3984375" xlink:href="#ArialMT-65"/>
      <use x="189.013671875" xlink:href="#ArialMT-20"/>
      <use x="216.796875" xlink:href="#ArialMT-48"/>
      <use x="289.013671875" xlink:href="#ArialMT-75"/>
      <use x="344.62890625" xlink:href="#ArialMT-6e"/>
      <use x="400.244140625" xlink:href="#ArialMT-64"/>
      <use x="455.859375" xlink:href="#ArialMT-72"/>
      <use x="489.16015625" xlink:href="#ArialMT-65"/>
      <use x="544.775390625" xlink:href="#ArialMT-64"/>
     </g>
    </g>
   </g>
  </g>
 </g>
 <defs>
  <clipPath id="pb1a1e4c689">
   <rect height="227.5378125" width="515.9175" x="35.273125" y="4.57265625"/>
  </clipPath>
 </defs>
</svg>
